<?xml version="1.0" encoding="UTF-8" standalone="no"?>
<!-- Generator: Adobe Illustrator 17.0.0, SVG Export Plug-In . SVG Version: 6.00 Build 0)  -->

<svg
   xmlns:dc="http://purl.org/dc/elements/1.1/"
   xmlns:cc="http://creativecommons.org/ns#"
   xmlns:rdf="http://www.w3.org/1999/02/22-rdf-syntax-ns#"
   xmlns:svg="http://www.w3.org/2000/svg"
   xmlns="http://www.w3.org/2000/svg"
   xmlns:sodipodi="http://sodipodi.sourceforge.net/DTD/sodipodi-0.dtd"
   xmlns:inkscape="http://www.inkscape.org/namespaces/inkscape"
   version="1.1"
   id="图层_1"
   x="0px"
   y="0px"
   width="14.6014"
   height="14.657326"
   viewBox="0 0 14.6014 14.657326"
   enable-background="new 0 0 160.08 159.58"
   xml:space="preserve"
   inkscape:version="0.91 r13725"
   sodipodi:docname="AOP.svg"><metadata
     id="metadata113"><rdf:RDF><cc:Work
         rdf:about=""><dc:format>image/svg+xml</dc:format><dc:type
           rdf:resource="http://purl.org/dc/dcmitype/StillImage" /><dc:title></dc:title></cc:Work></rdf:RDF></metadata><defs
     id="defs111" /><sodipodi:namedview
     pagecolor="#ffffff"
     bordercolor="#666666"
     borderopacity="1"
     objecttolerance="10"
     gridtolerance="10"
     guidetolerance="10"
     inkscape:pageopacity="0"
     inkscape:pageshadow="2"
     inkscape:window-width="1920"
     inkscape:window-height="1017"
     id="namedview109"
     showgrid="false"
     inkscape:zoom="23.662112"
     inkscape:cx="-10.030401"
     inkscape:cy="7.9951973"
     inkscape:window-x="1358"
     inkscape:window-y="-8"
     inkscape:window-maximized="1"
     inkscape:current-layer="图层_1"
     fit-margin-top="0"
     fit-margin-left="0"
     fit-margin-right="0"
     fit-margin-bottom="0" /><path
     style="fill:none;fill-rule:evenodd;stroke:#710e0e;stroke-width:1px;stroke-linecap:butt;stroke-linejoin:miter;stroke-opacity:1"
     d="M 3.1273624,3.2044174 7.0576963,5.4865467 7.2690046,9.3323573 11.74874,11.360917"
     id="path4188"
     inkscape:connector-curvature="0" /><path
     style="opacity:1;fill:#217619;fill-opacity:1;stroke:#710e0e;stroke-width:0.04226165;stroke-miterlimit:47;stroke-dasharray:none;stroke-opacity:1"
     d="M 6.4105788,13.33076 C 5.3279453,13.13379 4.2742549,12.62807 3.4810197,11.924713 2.4999644,11.054818 1.838786,9.9055223 1.5679512,8.5993143 1.4585747,8.0718027 1.4566961,6.8906881 1.5644223,6.3805775 1.7823161,5.3487956 2.2469253,4.383478 2.8767525,3.6539517 3.0832073,3.414816 3.1875858,3.3673124 3.0520444,3.5741748 c -0.060514,0.092356 -0.063406,0.1186384 -0.01629,0.1480541 0.031507,0.019671 0.8667179,0.5054986 1.8560251,1.0796176 l 1.7987403,1.0438529 0.1003118,1.9152743 c 0.055171,1.0534009 0.1110459,1.9303729 0.1241652,1.9488264 0.013119,0.018453 0.9652312,0.4588129 2.1158048,0.9785779 1.1505734,0.519764 2.1761404,0.987078 2.2790374,1.038474 l 0.187086,0.09345 -0.341789,0.27015 c -0.845857,0.668566 -1.7678574,1.079286 -2.7983541,1.246573 -0.4543044,0.07375 -1.5253609,0.0703 -1.9462029,-0.0063 z"
     id="path4190"
     inkscape:connector-curvature="0" /><path
     style="opacity:1;fill:#217619;fill-opacity:1;stroke:#710e0e;stroke-width:0.04226165;stroke-miterlimit:47;stroke-dasharray:none;stroke-opacity:1"
     d="m 11.680519,11.124447 c 0.01912,-0.04649 0.03694,-0.120927 0.03961,-0.165422 0.0051,-0.08438 -0.09284,-0.131425 -3.0379853,-1.4598668 C 8.1010447,9.2370472 7.6121689,9.0104377 7.5957519,8.9955819 7.5793345,8.980726 7.5189003,8.1275617 7.4614531,7.0996611 7.404006,6.0717608 7.3462137,5.2132925 7.3330257,5.1919538 7.3198377,5.1706153 6.4152985,4.6346935 5.3229385,4.0010167 3.8295745,3.134718 3.3475012,2.8360184 3.3798441,2.7970476 3.4543316,2.7072957 3.995975,2.35868 4.3598598,2.1662843 4.7704202,1.9492099 5.4116779,1.7200258 5.9151391,1.6104308 6.4220111,1.5000934 7.7273017,1.4986099 8.2383957,1.6077908 10.391163,2.067668 12.05973,3.5408824 12.739341,5.581777 c 0.209173,0.6281538 0.287377,1.1292291 0.287917,1.8447768 9.21e-4,1.2193214 -0.322041,2.2821547 -1.009301,3.3215222 -0.232435,0.35152 -0.407522,0.546809 -0.337438,0.376372 z"
     id="path4194"
     inkscape:connector-curvature="0" /><path
     style="opacity:1;fill:#710e0e;fill-opacity:1;stroke:#710e0e;stroke-width:0.02113083;stroke-miterlimit:47;stroke-dasharray:none;stroke-opacity:1"
     d="M 7.0038826,13.336511 C 6.1084781,13.287848 5.1751764,12.980269 4.3225355,12.452847 2.9712967,11.617005 1.9835764,10.182469 1.6598521,8.5856433 1.5664683,8.1250115 1.5486822,7.0440569 1.6261263,6.535953 1.7746902,5.5612385 2.326811,4.3721023 2.9682246,3.6453945 c 0.095961,-0.1087221 0.1223276,-0.1176299 0.081237,-0.027446 -0.020932,0.045941 -0.020103,0.06171 0.00449,0.085442 0.034124,0.032928 0.08302,0.061613 2.1432437,1.2573549 0.8251588,0.4789173 1.5063918,0.8771175 1.5138507,0.8848896 0.00746,0.00777 0.024502,0.2328351 0.037874,0.5001401 0.052403,1.0475802 0.1294229,2.4317502 0.1604715,2.8839431 0.027781,0.4046015 0.037986,0.4781355 0.068836,0.4959836 0.096362,0.055751 0.7983797,0.3799492 2.3817411,1.0999102 0.9530004,0.433333 1.8265384,0.831623 1.9411964,0.885088 l 0.208468,0.09721 -0.229599,0.181249 c -1.031646,0.814397 -2.1219901,1.262117 -3.2634463,1.340047 -0.2815869,0.01922 -0.7334044,0.02248 -1.0127063,0.0073 z"
     id="path4198"
     inkscape:connector-curvature="0" /></svg>