<?xml version="1.0" encoding="UTF-8" standalone="no"?>
<!-- Created with Inkscape (http://www.inkscape.org/) -->

<svg
   xmlns:dc="http://purl.org/dc/elements/1.1/"
   xmlns:cc="http://creativecommons.org/ns#"
   xmlns:rdf="http://www.w3.org/1999/02/22-rdf-syntax-ns#"
   xmlns:svg="http://www.w3.org/2000/svg"
   xmlns="http://www.w3.org/2000/svg"
   xmlns:sodipodi="http://sodipodi.sourceforge.net/DTD/sodipodi-0.dtd"
   xmlns:inkscape="http://www.inkscape.org/namespaces/inkscape"
   version="1.0"
   width="14.99976"
   height="15.063998"
   viewBox="-0.998 -0.609 14.99976 15.063998"
   id="svg2457"
   xml:space="preserve"
   inkscape:version="0.91 r13725"
   sodipodi:docname="Jardins_Remarquables_15.svg"><metadata
     id="metadata9"><rdf:RDF><cc:Work
         rdf:about=""><dc:format>image/svg+xml</dc:format><dc:type
           rdf:resource="http://purl.org/dc/dcmitype/StillImage" /><dc:title></dc:title></cc:Work></rdf:RDF></metadata><sodipodi:namedview
     pagecolor="#ffffff"
     bordercolor="#666666"
     borderopacity="1"
     objecttolerance="10"
     gridtolerance="10"
     guidetolerance="10"
     inkscape:pageopacity="0"
     inkscape:pageshadow="2"
     inkscape:window-width="1920"
     inkscape:window-height="1017"
     id="namedview7"
     showgrid="false"
     inkscape:zoom="42.297587"
     inkscape:cx="4.3682268"
     inkscape:cy="9.3832646"
     inkscape:window-x="1358"
     inkscape:window-y="-8"
     inkscape:window-maximized="1"
     inkscape:current-layer="g3337"
     fit-margin-top="0"
     fit-margin-left="0"
     fit-margin-right="0"
     fit-margin-bottom="0" /><defs
     id="defs2459" /><g
     id="g3337"
     transform="matrix(0.0321194,0,0,0.0321194,-1.6243283,-1.1710895)"><rect
       style="fill:#ffffff;fill-opacity:0"
       id="rect2463"
       y="17.5"
       x="19.5"
       height="469"
       width="467" /><g
       id="g4142"
       transform="translate(39.013567,9.9999994e-7)"><path
         inkscape:connector-curvature="0"
         d="m 214.18229,399.1515 0,-348.301002 c 76.081,27.568004 130.493,100.909002 130.493,187.063002 0,77.391 -43.913,144.436 -107.994,177.256 l 0,37.98 -22.832,0 0,-53.998 0.333,0 0,0 z"
         id="path2465"
         style="fill:#499328;fill-opacity:1" /><path
         inkscape:connector-curvature="0"
         d="m 213.79058,399.1515 0,-348.300999 C 137.70958,78.418499 83.297576,151.7595 83.297576,237.9135 c 0,77.391 43.913004,144.436 107.994004,177.256 l 0,37.98 22.832,0 0,-53.998 -0.333,0 0,0 z"
         id="path2467"
         style="fill:#499328;fill-opacity:1" /></g></g></svg>