<?xml version="1.0" encoding="UTF-8" standalone="no"?>
<!-- Generator: Adobe Illustrator 17.0.0, SVG Export Plug-In . SVG Version: 6.00 Build 0)  -->

<svg
   xmlns:dc="http://purl.org/dc/elements/1.1/"
   xmlns:cc="http://creativecommons.org/ns#"
   xmlns:rdf="http://www.w3.org/1999/02/22-rdf-syntax-ns#"
   xmlns:svg="http://www.w3.org/2000/svg"
   xmlns="http://www.w3.org/2000/svg"
   xmlns:sodipodi="http://sodipodi.sourceforge.net/DTD/sodipodi-0.dtd"
   xmlns:inkscape="http://www.inkscape.org/namespaces/inkscape"
   version="1.1"
   id="图层_1"
   x="0px"
   y="0px"
   width="14.6014"
   height="14.657326"
   viewBox="0 0 14.6014 14.657326"
   enable-background="new 0 0 160.08 159.58"
   xml:space="preserve"
   inkscape:version="0.91 r13725"
   sodipodi:docname="World_Heritage_Logo_global_small_simple.svg"><metadata
     id="metadata113"><rdf:RDF><cc:Work
         rdf:about=""><dc:format>image/svg+xml</dc:format><dc:type
           rdf:resource="http://purl.org/dc/dcmitype/StillImage" /><dc:title></dc:title></cc:Work></rdf:RDF></metadata><defs
     id="defs111" /><sodipodi:namedview
     pagecolor="#ffffff"
     bordercolor="#666666"
     borderopacity="1"
     objecttolerance="10"
     gridtolerance="10"
     guidetolerance="10"
     inkscape:pageopacity="0"
     inkscape:pageshadow="2"
     inkscape:window-width="1920"
     inkscape:window-height="1017"
     id="namedview109"
     showgrid="false"
     inkscape:zoom="33.46328"
     inkscape:cx="-3.2139677"
     inkscape:cy="5.4187748"
     inkscape:window-x="1358"
     inkscape:window-y="-8"
     inkscape:window-maximized="1"
     inkscape:current-layer="g4241"
     fit-margin-top="0"
     fit-margin-left="0"
     fit-margin-right="0"
     fit-margin-bottom="0" /><g
     id="g4241"
     transform="matrix(0.1,0,0,0.1,-0.6531,-0.7792746)"><path
       id="path3"
       d="m 79.635,22.274 c -32.805,0 -59.381,26.589 -59.381,59.387 0,29.834 22.011,54.525 50.681,58.744 0.594,0.127 1.148,0.205 1.639,0.199 2.927,-0.029 4.274,-2.389 4.274,-4.394 l 0,-29.075 -0.027,-0.082 -25.232,-25.25 28.388,-28.392 28.392,28.392 -25.202,25.202 0.119,-0.1 0,29.082 c 0,3.172 1.892,5.11 4.585,4.48 28.704,-4.184 51.145,-28.971 51.145,-58.824 0,-32.792 -26.6,-59.38 -59.384,-59.38 m 12.687,107.748 0,-0.039 -0.023,-18.697 -0.163,-0.067 29.18,-29.173 -41.628,-41.616 -41.629,41.627 29.771,29.779 -0.018,18.129 C 46.097,124.442 30.024,104.77 30.024,81.343 c 0,-27.703 22.46,-50.167 50.17,-50.167 27.714,0 50.167,22.465 50.167,50.167 0,24.402 -16.63,43.361 -38.047,48.671"
       inkscape:connector-curvature="0" /></g></svg>